<?xml version="1.0" standalone="no"?>
<!DOCTYPE svg PUBLIC "-//W3C//DTD SVG 20010904//EN"
 "http://www.w3.org/TR/2001/REC-SVG-20010904/DTD/svg10.dtd">
<svg version="1.0" xmlns="http://www.w3.org/2000/svg"
 width="2229.000000pt" height="659.000000pt" viewBox="0 0 2229.000000 659.000000"
 preserveAspectRatio="xMidYMid meet">

<g transform="translate(0.000000,659.000000) scale(0.100000,-0.100000)"
fill="#000000" stroke="none">
<path d="M0 4158 l0 -2432 193 189 c105 104 618 615 1140 1135 l947 945 708
-707 707 -706 1010 1003 1010 1004 -30 33 c-17 18 -60 65 -97 104 -38 40 -68
76 -68 81 0 5 242 70 538 144 l537 136 3 751 2 752 -3300 0 -3300 0 0 -2432z"/>
<path d="M6572 4878 c-11 -46 -62 -256 -112 -468 -51 -212 -95 -388 -99 -392
-3 -4 -48 25 -99 63 -51 39 -99 68 -106 66 -7 -3 -556 -540 -1221 -1193 -665
-654 -1219 -1197 -1232 -1207 l-24 -19 -142 138 c-78 76 -391 383 -694 683
-304 301 -557 546 -562 546 -5 0 -299 -284 -653 -631 -1267 -1243 -1452 -1424
-1454 -1421 -1 1 7 90 17 197 10 107 18 203 19 213 0 15 -12 17 -105 17 l-105
0 0 -735 0 -735 3300 0 3300 0 0 2480 c0 1364 -2 2480 -4 2480 -2 0 -13 -37
-24 -82z"/>
<path d="M7955 4266 c-229 -44 -422 -202 -486 -397 -18 -57 -23 -96 -23 -169
0 -240 107 -386 447 -613 187 -126 257 -190 299 -274 28 -57 32 -77 32 -142 1
-183 -133 -309 -334 -319 -157 -8 -272 39 -392 160 l-68 67 0 -195 0 -195 48
-20 c26 -12 90 -32 142 -46 82 -22 117 -26 255 -27 124 -1 174 3 224 17 231
63 403 237 452 455 16 71 13 219 -6 293 -46 178 -167 307 -497 527 -183 122
-253 208 -265 325 -18 171 117 307 305 307 131 0 241 -45 347 -142 l55 -50 -2
183 -3 184 -45 22 c-111 54 -340 77 -485 49z"/>
<path d="M15544 4228 c21 -77 46 -206 55 -290 15 -130 15 -1376 0 -1506 -9
-85 -39 -244 -55 -294 -5 -17 10 -18 231 -18 220 0 236 1 231 18 -61 208 -66
278 -66 1047 0 535 4 714 14 795 14 100 37 215 51 253 7 16 -8 17 -230 17
l-237 0 6 -22z"/>
<path d="M12657 4194 c-109 -23 -200 -44 -201 -45 -2 -2 7 -47 21 -99 20 -76
26 -130 30 -269 l6 -174 -29 6 c-77 17 -192 19 -269 4 -162 -31 -273 -91 -390
-212 -175 -180 -265 -439 -252 -720 10 -191 56 -311 163 -424 107 -114 228
-164 399 -165 157 -1 180 9 283 124 l87 97 3 -99 3 -98 174 0 c96 0 175 3 175
8 0 4 -9 36 -21 72 -30 96 -38 297 -38 905 0 643 10 938 38 1050 11 44 19 80
18 81 -1 0 -91 -19 -200 -42z m-292 -790 c33 -8 79 -26 103 -40 l42 -25 0
-467 0 -468 -67 -35 c-65 -33 -72 -34 -178 -34 -128 0 -176 17 -249 90 -98 99
-139 227 -140 440 0 388 107 552 364 554 36 1 93 -6 125 -15z"/>
<path d="M21598 3661 c-137 -143 -248 -262 -248 -265 0 -3 45 -6 99 -6 l100 0
4 -507 c4 -539 5 -552 55 -648 61 -119 212 -168 419 -136 145 22 139 17 204
174 42 102 53 137 41 132 -144 -61 -237 -70 -312 -32 -54 26 -85 70 -99 138
-7 31 -11 207 -11 464 l0 415 170 0 170 0 0 105 0 105 -170 0 -170 0 -2 161
-3 161 -247 -261z"/>
<path d="M9198 3620 c-72 -13 -197 -52 -207 -64 -8 -10 -81 -250 -81 -268 0
-4 26 8 58 28 91 55 177 77 282 72 76 -4 95 -8 136 -34 30 -18 60 -48 79 -78
28 -46 30 -56 33 -165 l4 -116 -243 -99 c-253 -104 -333 -149 -396 -220 -71
-80 -88 -128 -88 -241 0 -89 3 -106 27 -151 65 -123 210 -193 401 -194 l67 0
115 85 114 84 3 -67 3 -67 174 -3 c163 -2 173 -1 166 15 -36 84 -38 116 -45
623 -6 413 -10 515 -23 557 -47 159 -135 249 -282 290 -63 17 -235 25 -297 13z
m302 -1074 l0 -204 -32 -5 c-137 -24 -241 -14 -315 29 -78 45 -101 141 -68
282 26 110 8 102 225 102 l190 0 0 -204z"/>
<path d="M10746 3615 c-38 -8 -75 -20 -81 -27 -6 -7 -56 -64 -111 -127 l-99
-115 -3 127 -3 127 -174 0 c-100 0 -175 -4 -175 -9 0 -5 9 -47 20 -93 32 -136
40 -271 40 -652 0 -404 -10 -568 -40 -656 -11 -33 -20 -62 -20 -65 0 -3 92 -5
205 -5 113 0 205 2 205 3 0 2 -9 30 -20 63 -32 92 -41 247 -38 678 l3 400 94
39 c158 65 282 62 362 -10 66 -60 69 -82 69 -512 0 -392 -9 -521 -41 -606 -10
-27 -19 -51 -19 -52 0 -2 91 -3 201 -3 l201 0 -6 23 c-35 118 -37 156 -43 632
-5 526 -9 562 -65 667 -39 74 -103 131 -176 158 -73 28 -196 34 -286 15z"/>
<path d="M13600 3624 c-105 -21 -191 -65 -269 -138 -171 -162 -265 -434 -248
-720 21 -345 230 -598 547 -662 99 -20 255 -15 366 11 l72 16 56 134 c31 74
56 137 56 140 0 3 -17 -3 -38 -14 -88 -45 -183 -66 -297 -66 -102 0 -115 2
-176 31 -143 68 -233 210 -273 432 l-5 32 409 0 410 0 0 98 c0 267 -57 457
-173 571 -62 61 -103 87 -177 113 -54 19 -209 32 -260 22z m207 -228 c88 -41
141 -142 158 -298 l7 -68 -291 0 c-332 0 -301 -12 -276 103 28 135 90 228 179
268 61 28 157 25 223 -5z"/>
<path d="M15110 3614 c-71 -15 -63 -8 -232 -194 l-77 -85 -1 133 0 132 -175 0
c-96 0 -175 -3 -175 -7 0 -5 9 -42 20 -83 36 -141 42 -244 38 -740 -4 -440 -6
-480 -25 -545 -11 -38 -23 -78 -28 -87 -7 -17 6 -18 199 -18 113 0 206 3 206
8 0 4 -9 36 -21 72 -29 94 -40 304 -37 714 l3 349 100 41 c91 37 108 41 190
41 78 0 97 -4 145 -27 30 -15 56 -25 59 -23 8 8 61 297 56 305 -8 12 -91 30
-137 29 -24 0 -72 -7 -108 -15z"/>
<path d="M17045 3624 c-134 -27 -115 -15 -232 -150 l-108 -126 -5 124 -5 123
-178 3 c-167 2 -178 1 -173 -15 51 -173 56 -246 56 -750 0 -478 -5 -562 -39
-658 l-19 -55 210 0 c196 0 210 1 203 18 -50 119 -49 106 -53 630 l-3 493 63
28 c102 47 173 64 247 59 122 -7 192 -68 211 -183 13 -78 13 -600 0 -778 -6
-87 -17 -160 -30 -197 -11 -33 -20 -62 -20 -65 0 -3 90 -5 201 -5 187 0 201 1
194 18 -36 92 -38 125 -45 637 -5 337 -11 525 -19 554 -30 114 -103 211 -191
256 -70 35 -192 53 -265 39z"/>
<path d="M19606 3614 c-219 -53 -398 -272 -457 -559 -24 -116 -26 -326 -3
-428 9 -40 36 -114 61 -166 79 -164 222 -287 403 -343 65 -20 95 -23 220 -22
137 1 258 18 281 41 13 13 119 273 111 273 -4 0 -16 -7 -27 -16 -36 -27 -176
-64 -264 -70 -178 -13 -307 51 -400 201 -34 54 -75 171 -86 248 l-7 47 406 0
406 0 0 138 c0 237 -52 407 -159 524 -111 122 -307 175 -485 132z m232 -210
c100 -41 171 -178 172 -331 l0 -43 -285 0 -285 0 0 33 c0 81 49 212 101 272
68 77 203 109 297 69z"/>
<path d="M20815 3614 c-149 -33 -280 -128 -334 -243 -23 -50 -26 -68 -26 -166
0 -98 3 -116 26 -165 40 -85 109 -161 249 -275 185 -152 230 -208 230 -294 0
-36 -36 -104 -67 -128 -110 -80 -266 -46 -409 90 l-74 70 0 -176 0 -175 78
-20 c295 -80 507 -47 646 97 127 134 159 318 81 477 -33 67 -134 176 -254 274
-170 139 -211 193 -211 282 0 89 72 148 187 156 90 6 162 -19 229 -81 l55 -50
-3 144 -3 143 -70 24 c-91 31 -231 38 -330 16z"/>
<path d="M17700 3593 c0 -5 16 -35 36 -67 135 -225 205 -421 474 -1334 l21
-73 141 3 142 3 177 560 c194 617 229 713 294 827 25 43 45 80 45 83 0 3 -70
4 -155 3 l-155 -3 -4 -110 c-3 -109 -4 -115 -140 -560 -75 -247 -139 -459
-143 -469 -4 -15 -7 -16 -13 -5 -12 22 -267 866 -285 943 -9 38 -15 99 -14
135 l3 66 -212 3 c-117 1 -212 -1 -212 -5z"/>
</g>
</svg>
